<?xml version="1.0" encoding="UTF-8" standalone="no"?>
<svg
   xmlns:osb="http://www.openswatchbook.org/uri/2009/osb"
   xmlns:dc="http://purl.org/dc/elements/1.1/"
   xmlns:cc="http://creativecommons.org/ns#"
   xmlns:rdf="http://www.w3.org/1999/02/22-rdf-syntax-ns#"
   xmlns:svg="http://www.w3.org/2000/svg"
   xmlns="http://www.w3.org/2000/svg"
   xmlns:sodipodi="http://sodipodi.sourceforge.net/DTD/sodipodi-0.dtd"
   xmlns:inkscape="http://www.inkscape.org/namespaces/inkscape"
   inkscape:export-ydpi="400"
   inkscape:export-xdpi="400"
   inkscape:export-filename="C:\Users\marti\bitmapa.png"
   width="50mm"
   height="50mm"
   viewBox="0 0 50 50"
   version="1.1"
   id="svg8"
   inkscape:version="1.0 (4035a4fb49, 2020-05-01)"
   sodipodi:docname="logo2.svg">
  <defs
     id="defs2">
    <linearGradient
       osb:paint="solid"
       id="linearGradient877">
      <stop
         id="stop875"
         offset="0"
         style="stop-color:#000000;stop-opacity:1;" />
    </linearGradient>
    <inkscape:path-effect
       effect="bspline"
       id="path-effect985"
       is_visible="true"
       lpeversion="1"
       weight="33.333333"
       steps="2"
       helper_size="0"
       apply_no_weight="true"
       apply_with_weight="true"
       only_selected="false" />
  </defs>
  <sodipodi:namedview
     id="base"
     pagecolor="#ffffff"
     bordercolor="#666666"
     borderopacity="1.0"
     inkscape:pageopacity="0.0"
     inkscape:pageshadow="2"
     inkscape:zoom="1.979899"
     inkscape:cx="-79.445312"
     inkscape:cy="9.2294784"
     inkscape:document-units="mm"
     inkscape:current-layer="layer1"
     inkscape:document-rotation="0"
     showgrid="false"
     inkscape:window-width="1920"
     inkscape:window-height="1017"
     inkscape:window-x="-8"
     inkscape:window-y="-8"
     inkscape:window-maximized="1"
     inkscape:pagecheckerboard="false"
     borderlayer="false" />
  <metadata
     id="metadata5">
    <rdf:RDF>
      <cc:Work
         rdf:about="">
        <dc:format>image/svg+xml</dc:format>
        <dc:type
           rdf:resource="http://purl.org/dc/dcmitype/StillImage" />
        <dc:title></dc:title>
      </cc:Work>
    </rdf:RDF>
  </metadata>
  <g
     inkscape:label="Vrstva 1"
     inkscape:groupmode="layer"
     id="layer1">
    <path
       style="opacity:1;fill:none;fill-opacity:1;stroke:#000000;stroke-width:0.264583px;stroke-linecap:butt;stroke-linejoin:miter;stroke-opacity:1"
       d="m 7.1039569,38.177078 c 0,0 -1.0111289,-7.117128 0.65173,-10.023078 C 10.977446,22.523774 24.400674,5.2019956 24.400674,5.2019956 l 3.838762,2.951575 c 0.09003,0.141125 0.288649,2.7304554 -2.041728,3.7734514 -1.061323,0.474964 -2.35895,2.809215 -2.461245,4.036609 -0.116218,1.394447 -1.297867,2.110991 -2.286599,2.861625 -1.605312,1.218734 -2.404666,1.342177 -2.652327,3.181956 -0.304063,2.258772 -1.484619,2.845326 -3.302473,4.022304 -2.087917,1.351831 -2.946151,3.133443 -3.382928,5.041971 -0.476922,2.083948 -5.0081791,7.105591 -5.0081791,7.105591 z"
       id="path843"
       sodipodi:nodetypes="csccssssssc"
       inkscape:label="path843" />
    <path
       style="mix-blend-mode:normal;fill:none;fill-opacity:1;stroke:#000000;stroke-width:0.289364px;stroke-linecap:butt;stroke-linejoin:miter;stroke-opacity:1"
       d="m 29.698096,4.1773082 11.073995,20.9991388 1.492943,12.91995 c 0,0 -4.799717,-5.313865 -6.39657,-10.24386 -0.01301,-0.04017 -0.02073,-0.0834 -0.04033,-0.122536 C 33.56793,23.216942 26.252787,7.9943245 26.252787,7.9943245 Z"
       id="path873"
       sodipodi:nodetypes="cccsscc" />
    <rect
       transform="matrix(0.94452162,-0.32844924,0.20281119,0.97921786,0,0)"
       y="27.211451"
       x="5.0178628"
       height="6.2974491"
       width="0.20798916"
       id="rect875-6"
       style="opacity:1;fill:none;fill-opacity:1;stroke:#000000;stroke-width:0.159667;stroke-linecap:round;stroke-linejoin:miter;stroke-miterlimit:4;stroke-dasharray:none;stroke-opacity:1;paint-order:stroke markers fill" />
    <rect
       transform="matrix(0.96684337,-0.25537011,0.17039894,0.98537516,0,0)"
       y="14.453462"
       x="20.264841"
       height="6.8578138"
       width="0.26561269"
       id="rect875-3"
       style="opacity:1;fill:none;fill-opacity:1;stroke:#000000;stroke-width:0.158659;stroke-linecap:round;stroke-linejoin:miter;stroke-miterlimit:4;stroke-dasharray:none;stroke-opacity:1;paint-order:stroke markers fill" />
    <circle
       style="opacity:1;fill:none;fill-opacity:1;stroke:#000000;stroke-width:0.181;stroke-linecap:round;stroke-linejoin:miter;stroke-miterlimit:4;stroke-dasharray:none;stroke-opacity:1;paint-order:stroke markers fill"
       id="path937"
       cx="24.827023"
       cy="8.1789875"
       r="0.75" />
    <circle
       cy="32.21991"
       cx="8.9914627"
       id="path937-2"
       style="opacity:1;fill:none;fill-opacity:1;stroke:#000000;stroke-width:0.181;stroke-linecap:round;stroke-linejoin:miter;stroke-miterlimit:4;stroke-dasharray:none;stroke-opacity:1;paint-order:stroke markers fill"
       r="0.5" />
    <path
       style="fill:none;stroke:#000000;stroke-width:0.099846;stroke-linecap:butt;stroke-linejoin:miter;stroke-miterlimit:4;stroke-dasharray:none;stroke-opacity:1"
       d="m 18.65756,24.074603 c 0.249434,-1.153678 0.748302,-3.461028 1.18219,-3.150515 0.433888,0.310512 0.802751,3.238523 1.229328,3.208163 0.426576,-0.03036 0.910855,-3.018995 1.30616,-2.924675 0.395305,0.09432 0.701588,3.271318 1.136982,3.321622 0.435395,0.0503 0.99988,-3.025987 1.434385,-2.971317 0.434505,0.05467 0.736774,3.216948 1.102038,3.198904 0.365264,-0.01804 0.783005,-3.215833 1.174979,-3.33882 0.391975,-0.122987 0.755077,2.851907 1.127201,2.871039 0.372123,0.01913 0.75326,-2.917415 1.114055,-2.815251 0.360795,0.102163 0.701193,3.24278 1.093655,3.248808 0.392462,0.006 0.836974,-3.122456 1.294485,-3.629416 0.457511,-0.506961 0.927935,1.607383 1.169022,2.718335 0.241087,1.110952 0.252854,1.218473 0.03712,0.638059 -0.215737,-0.580415 -0.659042,-1.84884 -1.079121,-1.808541 -0.420078,0.0403 -0.816818,1.389617 -1.074604,2.217687 -0.257787,0.82807 -0.376629,1.134898 -0.582241,0.548034 -0.205611,-0.586863 -0.49799,-2.067672 -0.843934,-2.046313 -0.345945,0.02136 -0.745394,1.545102 -1.120856,1.590177 -0.375462,0.04508 -0.730721,-1.404078 -1.128187,-1.306362 -0.397465,0.09772 -0.838939,1.734886 -1.219714,1.683262 -0.380775,-0.05162 -0.704194,-1.810357 -1.140285,-1.817251 -0.436091,-0.0069 -0.986467,1.729235 -1.435636,1.702246 -0.449169,-0.02699 -0.797133,-1.817341 -1.228933,-1.884561 -0.4318,-0.06722 -0.947382,1.588927 -1.321915,1.445237 -0.374533,-0.14369 -0.622342,-2.206757 -1.028606,-2.18969 -0.406263,0.01707 -0.978101,2.054823 -1.246861,2.832467 -0.268761,0.777645 -0.234418,0.295036 -0.217244,0.05369 0.01717,-0.24135 0.01711,-0.241338 0.26654,-1.395015 z"
       id="path983"
       inkscape:path-effect="#path-effect985"
       inkscape:original-d="m 18.408126,25.22828 c 0.499428,-2.307234 0.998296,-4.614584 1.496603,-6.922055 0.369442,2.928308 0.738313,5.856318 1.106633,8.784381 0.484859,-2.988624 0.96914,-5.977258 1.452863,-8.966064 0.306867,3.177301 0.613147,6.354299 0.918885,9.53136 0.565071,-3.076296 1.129554,-6.152588 1.693491,-9.229068 0.305062,3.185665 0.607323,6.347943 0.91346,9.556438 0.424415,-3.244457 0.842155,-6.442246 1.262389,-9.663551 0.363688,2.975191 0.726791,5.950085 1.08935,8.92503 0.381714,-2.936542 0.762852,-5.873088 1.143435,-8.809818 0.340981,3.140924 0.681379,6.281541 1.021235,9.422229 0.445091,-3.128493 0.889604,-6.256976 1.333564,-9.385644 0.471013,2.114551 0.941429,4.228896 1.4113,6.343163 0.01229,0.107697 0.02402,0.215222 0.03531,0.322634 -0.442758,-1.268354 -0.886067,-2.536778 -1.329942,-3.805348 -0.396192,1.349493 -0.792932,2.69881 -1.190244,4.048035 -0.118279,0.30696 -0.237125,0.613786 -0.356532,0.9205 -0.291829,-1.480748 -0.584206,-2.961557 -0.877154,-4.442519 -0.398901,1.523929 -0.798353,3.047671 -1.198374,4.571325 -0.373173,-1.428326 -0.706219,-2.882925 -1.060167,-4.324571 -0.440931,1.637349 -0.882402,3.274519 -1.324445,4.911596 -0.341539,-1.736523 -0.642955,-3.499304 -0.965281,-5.24914 -0.549838,1.736318 -1.100213,3.472447 -1.651161,5.208491 -0.347409,-1.790298 -0.69538,-3.580648 -1.043911,-5.371151 -0.515036,1.656336 -1.03062,3.312482 -1.546776,4.968538 -0.232924,-1.943671 -0.480723,-4.006739 -0.721943,-6.01035 -0.571302,2.037963 -1.143137,4.075721 -1.715549,6.113399 0.0349,-0.482504 0.06925,-0.965112 0.10303,-1.447852 z"
       sodipodi:nodetypes="sccccccccccccccccccccccccccss" />
    <rect
       style="opacity:1;fill:none;fill-opacity:1;stroke:#000000;stroke-width:0.18109;stroke-linecap:round;stroke-linejoin:miter;stroke-miterlimit:4;stroke-dasharray:none;stroke-opacity:1;paint-order:stroke markers fill"
       id="rect1010"
       width="0.72528684"
       height="5.7202845"
       x="22.174145"
       y="34.937328"
       transform="matrix(0.89953622,-0.43684619,0.47641812,0.87921884,0,0)" />
    <circle
       r="23.442602"
       cy="24.914021"
       cx="25.181292"
       id="path3223"
       style="fill:none;fill-opacity:1;stroke:#000000;stroke-width:0.483922;stroke-linecap:round;stroke-miterlimit:4;stroke-dasharray:none;stroke-opacity:1;paint-order:stroke markers fill" />
  </g>
</svg>
